<?xml version="1.0" standalone="no"?>
<!DOCTYPE svg PUBLIC "-//W3C//DTD SVG 20010904//EN"
 "http://www.w3.org/TR/2001/REC-SVG-20010904/DTD/svg10.dtd">
<svg version="1.0" xmlns="http://www.w3.org/2000/svg"
 width="251.000000pt" height="201.000000pt" viewBox="0 0 251.000000 201.000000"
 preserveAspectRatio="xMidYMid meet">

<g transform="translate(0.000000,201.000000) scale(0.100000,-0.100000)"
fill="#000000" stroke="none">
<path d="M876 1625 c7 -17 44 -41 44 -28 0 4 -12 16 -25 26 -20 15 -24 15 -19
2z"/>
<path d="M1122 1624 c-16 -8 -20 -14 -12 -19 7 -4 19 0 28 9 21 20 13 26 -16
10z"/>
<path d="M1143 1583 c-14 -3 -23 -12 -23 -23 0 -12 -8 -20 -22 -22 -17 -2 -24
-12 -29 -38 -3 -19 -11 -45 -17 -57 -11 -20 -6 -113 6 -113 3 0 18 15 33 33
33 38 39 18 9 -28 -11 -16 -20 -43 -20 -59 0 -16 -7 -34 -17 -41 -15 -11 -15
-14 0 -36 10 -13 17 -33 17 -46 0 -26 20 -73 31 -73 4 0 10 13 14 30 4 16 10
32 15 35 9 6 24 -45 25 -84 0 -20 9 -27 52 -42 50 -17 52 -17 68 1 9 10 32 26
50 34 23 11 37 27 45 52 11 33 10 38 -13 62 -20 21 -24 31 -15 45 14 26 2 64
-29 93 -19 18 -24 29 -19 49 5 18 2 25 -8 25 -20 0 -40 26 -26 35 7 4 3 15
-10 32 -22 28 -27 82 -9 100 8 8 4 15 -12 27 -23 15 -49 18 -96 9z"/>
<path d="M800 1563 c-14 -9 -27 -19 -30 -22 -3 -3 -49 -28 -102 -55 -97 -49
-118 -72 -52 -60 21 4 40 2 49 -6 8 -7 22 -9 31 -6 12 5 28 -5 51 -31 l35 -38
14 34 c11 26 12 36 3 42 -8 4 -5 9 8 13 11 4 29 16 39 27 16 17 16 22 4 29
-13 8 -12 10 2 10 9 0 23 3 32 6 10 4 15 0 14 -13 0 -10 9 -61 21 -113 12 -52
23 -102 24 -110 4 -27 26 -42 52 -36 17 4 22 11 18 22 -3 9 0 20 8 25 11 7 10
9 -6 10 l-20 0 20 10 c15 7 7 8 -28 5 -45 -3 -47 -2 -40 18 10 28 9 57 -7 149
-13 75 -15 79 -48 93 -45 18 -62 18 -92 -3z"/>
<path d="M1329 1533 c-6 -19 -8 -51 -4 -71 7 -40 71 -162 84 -162 5 0 16 11
25 25 10 14 28 31 42 37 22 10 24 16 19 50 -5 30 -3 39 10 44 9 4 21 18 26 32
11 30 -1 42 -43 42 -14 0 -53 8 -87 19 l-60 19 -12 -35z"/>
<path d="M1808 1525 c-3 -3 -54 -7 -114 -8 -107 -2 -109 -2 -118 -28 -12 -35
16 -129 50 -162 l26 -27 24 33 c13 17 35 49 49 70 29 42 58 46 63 9 2 -13 14
-27 28 -32 13 -6 34 -26 45 -45 24 -40 30 -42 53 -16 13 15 16 36 14 114 l-3
97 -56 0 c-31 0 -58 -2 -61 -5z"/>
<path d="M2288 1453 c-2 -10 0 -28 6 -41 7 -17 6 -27 -7 -40 -16 -15 -17 -15
-17 6 0 27 -21 29 -43 4 -18 -20 -23 -72 -8 -87 5 -6 11 -26 13 -45 3 -37 21
-44 26 -10 2 11 8 20 14 20 6 0 8 -14 4 -37 -19 -115 -19 -138 2 -156 19 -17
19 -17 25 30 24 189 29 290 18 331 -12 44 -27 55 -33 25z"/>
<path d="M520 1382 c0 -11 -159 -289 -190 -332 -22 -31 -22 -31 -37 -11 -30
44 -53 21 -53 -54 0 -40 -2 -44 -30 -50 -16 -4 -35 -3 -41 1 -8 4 -9 3 -5 -4
4 -7 18 -12 32 -12 27 0 31 -12 9 -30 -8 -7 -15 -24 -15 -39 0 -14 -14 -59
-31 -99 -16 -40 -28 -79 -25 -85 3 -7 5 -6 5 3 1 21 38 53 44 37 5 -16 46 20
58 52 6 16 14 21 25 17 9 -4 31 -4 50 0 35 6 54 38 51 83 -3 38 21 36 40 -3 9
-20 20 -36 25 -36 4 0 28 14 52 32 36 25 59 32 113 37 37 3 67 9 66 14 -2 4
-3 15 -3 25 0 19 -51 52 -80 52 -11 0 -20 8 -22 22 -2 12 -16 29 -33 38 -35
19 -39 40 -10 55 11 5 30 20 43 33 12 12 29 22 37 22 16 0 35 30 35 54 0 24
-59 56 -102 56 -49 0 -55 14 -24 51 14 17 26 34 26 39 0 5 3 15 6 24 3 9 1 16
-5 16 -6 0 -11 -4 -11 -8z"/>
<path d="M1968 1353 c-26 -30 -35 -56 -34 -99 1 -34 7 -46 34 -69 l33 -28 39
32 c21 17 45 31 53 31 19 0 57 55 57 83 0 19 -8 26 -39 35 -21 7 -54 12 -73
12 -19 0 -39 5 -44 10 -7 7 -15 5 -26 -7z"/>
<path d="M1781 1275 c-17 -25 -31 -50 -31 -56 0 -18 27 -9 38 14 8 17 11 18
11 5 1 -25 23 -22 44 7 17 24 17 26 -6 51 l-24 26 -32 -47z"/>
<path d="M1461 1226 c-19 -20 -32 -39 -28 -42 4 -4 -2 -21 -12 -38 -24 -39
-13 -76 22 -76 30 0 51 23 72 80 39 103 11 143 -54 76z"/>
<path d="M1867 1232 c-40 -45 -8 -156 43 -150 34 4 42 61 11 78 -15 7 -21 21
-21 45 0 41 -12 51 -33 27z"/>
<path d="M904 1217 c-12 -32 1 -90 23 -104 19 -13 23 -12 33 6 8 16 6 29 -10
60 -23 46 -38 58 -46 38z"/>
<path d="M1691 1201 c-8 -14 -6 -25 9 -44 11 -14 23 -39 26 -55 6 -31 44 -59
63 -48 5 4 10 28 9 53 0 27 4 49 11 51 6 2 11 12 11 23 0 40 -40 10 -41 -30 0
-19 -2 -21 -7 -10 -8 19 -58 79 -66 79 -3 0 -10 -9 -15 -19z"/>
<path d="M1520 1086 c0 -49 3 -58 26 -72 22 -15 27 -15 35 -3 15 24 10 54 -13
89 -36 53 -48 50 -48 -14z"/>
<path d="M1390 1046 c0 -33 24 -82 47 -95 16 -9 16 -11 2 -23 -34 -28 -50 -68
-45 -111 3 -23 5 -53 6 -67 3 -36 26 42 36 116 l7 57 158 -7 c89 -4 159 -4
159 1 0 9 -167 33 -223 33 -26 0 -28 2 -22 28 7 32 -11 53 -60 70 -16 5 -38
13 -47 17 -15 6 -18 2 -18 -19z"/>
<path d="M1138 1023 c7 -3 16 -2 19 1 4 3 -2 6 -13 5 -11 0 -14 -3 -6 -6z"/>
<path d="M913 961 c-19 -15 -29 -31 -25 -37 17 -19 33 -95 26 -128 -3 -19 -2
-42 3 -51 7 -13 10 -9 10 17 1 18 5 76 10 128 5 52 9 96 9 97 -1 0 -16 -11
-33 -26z"/>
<path d="M1945 955 c-33 -7 -51 -13 -40 -13 11 -1 40 3 65 8 53 10 72 -2 101
-65 l18 -40 0 40 c1 22 -6 51 -15 63 -17 25 -39 26 -129 7z"/>
<path d="M1848 933 c6 -2 18 -2 25 0 6 3 1 5 -13 5 -14 0 -19 -2 -12 -5z"/>
<path d="M1798 923 c6 -2 18 -2 25 0 6 3 1 5 -13 5 -14 0 -19 -2 -12 -5z"/>
<path d="M1240 866 c0 -35 13 -77 21 -65 4 8 11 -4 18 -32 10 -41 10 -39 5 25
-3 38 -7 73 -10 78 -8 13 -34 9 -34 -6z"/>
<path d="M2114 781 c3 -4 10 -21 16 -37 8 -21 13 -25 20 -15 6 10 8 7 8 -10 0
-13 1 -35 3 -49 3 -27 -44 -199 -76 -272 -6 -15 -2 -18 24 -18 23 0 29 -4 24
-16 -5 -13 0 -14 33 -8 56 9 61 20 19 35 l-37 14 4 62 c2 34 0 59 -4 57 -12
-8 -10 0 17 72 14 36 25 75 25 86 0 27 -36 94 -55 102 -22 8 -27 8 -21 -3z"/>
<path d="M865 713 c-4 -37 -14 -86 -21 -108 -18 -54 -17 -65 5 -65 59 0 78 38
56 113 -8 29 -17 67 -19 85 -6 56 -14 47 -21 -25z"/>
<path d="M165 647 c-10 -8 -14 -17 -9 -20 6 -3 15 3 22 14 14 23 12 24 -13 6z"/>
<path d="M200 640 c0 -5 5 -10 10 -10 6 0 10 5 10 10 0 6 -4 10 -10 10 -5 0
-10 -4 -10 -10z"/>
<path d="M1280 625 c0 -14 -5 -34 -11 -44 -9 -13 -9 -26 -2 -48 13 -35 -4
-103 -24 -103 -12 0 -33 -30 -33 -48 0 -5 18 -14 39 -21 73 -21 126 23 59 50
-18 7 -34 13 -36 14 -1 1 7 38 18 83 19 77 19 125 -1 138 -5 3 -9 -6 -9 -21z"/>
<path d="M611 573 c-26 -32 -19 -43 24 -43 40 0 50 12 33 39 -19 31 -35 33
-57 4z"/>
<path d="M1462 539 c-17 -27 -14 -30 31 -22 43 7 47 15 12 31 -32 15 -28 16
-43 -9z"/>
</g>
</svg>
