<?xml version="1.0" standalone="no"?>
<!DOCTYPE svg PUBLIC "-//W3C//DTD SVG 20010904//EN"
 "http://www.w3.org/TR/2001/REC-SVG-20010904/DTD/svg10.dtd">
<svg version="1.0" xmlns="http://www.w3.org/2000/svg"
 width="225.000000pt" height="225.000000pt" viewBox="0 0 225.000000 225.000000"
 preserveAspectRatio="xMidYMid meet">

<g transform="translate(0.000000,225.000000) scale(0.100000,-0.100000)"
fill="#000000" stroke="none">
<path d="M1890 1561 c-34 -14 -86 -20 -205 -25 -143 -6 -169 -5 -248 14 -85
20 -91 20 -174 5 -77 -14 -123 -15 -452 -4 -502 18 -484 18 -518 -7 -64 -48
-67 -61 -70 -358 -2 -149 -4 -316 -5 -371 -2 -84 2 -108 19 -147 14 -30 28
-48 39 -48 18 0 17 15 -10 110 -18 61 -21 140 -6 140 6 0 10 -27 10 -60 0 -53
2 -60 20 -60 18 0 20 7 20 66 0 36 -6 92 -14 123 -8 31 -17 128 -20 216 -6
141 -5 158 8 145 8 -8 26 -43 39 -77 21 -51 24 -73 20 -122 -8 -81 2 -121 40
-172 21 -29 32 -56 33 -79 0 -19 11 -73 23 -120 16 -58 21 -100 18 -132 -4
-34 -2 -48 8 -52 43 -16 50 74 15 207 -15 60 -21 104 -17 140 5 60 -19 164
-58 248 -13 30 -25 59 -25 66 0 7 17 17 38 23 31 8 42 18 58 52 16 36 27 45
68 60 27 9 53 23 58 30 10 14 5 92 -7 121 -7 17 0 18 131 12 l138 -5 39 -38
c50 -48 71 -87 58 -110 -5 -9 -30 -36 -54 -59 -50 -46 -72 -98 -64 -150 15
-87 76 -97 162 -26 52 43 63 48 110 48 76 1 88 15 83 95 -4 64 -11 81 -74 167
-25 35 -10 60 39 68 23 3 70 11 105 17 35 6 65 8 67 6 3 -3 -2 -20 -11 -38
-25 -50 -21 -97 17 -168 31 -60 32 -65 20 -105 -34 -112 -21 -157 46 -157 28
0 33 -3 29 -17 -50 -162 -72 -404 -42 -461 l17 -32 -50 0 c-53 0 -80 -17 -59
-38 14 -14 127 -16 148 -2 13 8 13 15 -4 57 -26 68 -30 120 -16 232 l12 98 36
11 c52 16 87 53 124 128 33 67 128 168 188 199 27 14 33 14 63 -2 47 -25 218
-31 252 -9 35 23 31 55 -14 112 -21 27 -46 64 -55 81 -22 44 -75 103 -92 103
-16 0 -19 -36 -3 -45 6 -4 31 -39 56 -79 25 -39 54 -81 65 -93 37 -40 19 -52
-69 -47 -108 7 -118 10 -159 46 -32 28 -35 35 -29 67 4 19 15 46 26 59 10 14
19 36 19 51 0 22 8 29 47 45 39 16 53 18 87 8 44 -11 56 -9 56 14 0 33 -92 48
-150 25z m-130 -224 c0 -18 6 -39 13 -46 10 -10 6 -17 -18 -34 -69 -49 -157
-145 -192 -211 -36 -65 -85 -117 -99 -104 -3 4 6 48 21 99 20 65 35 99 52 112
13 11 37 44 52 76 31 60 81 114 121 130 42 17 50 13 50 -22z m-1352 -329 c6
-21 7 -38 2 -38 -9 0 -30 55 -30 78 0 26 17 1 28 -40z"/>
<path d="M1910 1391 c0 -24 25 -34 40 -16 15 18 5 35 -21 35 -12 0 -19 -7 -19
-19z"/>
<path d="M707 1373 c-2 -4 -8 -37 -11 -73 -9 -83 -48 -199 -91 -270 -32 -54
-86 -180 -98 -231 -6 -25 23 -235 38 -272 7 -16 2 -18 -39 -16 -50 3 -61 -2
-53 -26 5 -11 23 -15 77 -15 78 0 77 -1 56 70 -7 25 -19 89 -26 142 -17 131
-5 174 37 132 15 -15 18 -14 32 4 9 11 34 29 57 40 22 11 45 32 51 45 l12 25
63 -25 c82 -34 158 -33 307 1 148 34 149 34 168 -11 16 -39 24 -202 13 -288
-4 -35 -2 -40 15 -40 16 0 21 11 32 75 16 97 2 222 -33 300 -14 30 -28 77 -31
103 -4 29 -12 51 -21 54 -18 7 -33 -16 -28 -42 19 -89 20 -82 -21 -88 -21 -3
-81 -15 -133 -26 -52 -12 -116 -21 -142 -21 -64 0 -143 31 -202 80 -26 22 -53
40 -58 40 -11 0 -11 1 27 110 29 82 40 219 18 227 -6 2 -13 0 -16 -4z m0 -409
c13 -36 -53 -89 -103 -82 l-23 3 30 62 30 63 30 -16 c17 -8 33 -22 36 -30z"/>
</g>
</svg>
